# xmcd CD database file
#
# Track frame offsets:
#	150
#	20805
#	42918
#	61953
#	83661
#	121110
#	142170
#	165012
#	184128
#
# Disc length: 2759 seconds
#
# Revision: 0
# Processed by: cddbd v1.5.1PL2 Copyright (c) Steve Scherf et al.
# Submitted via: CDex 1.51
#
DISCID=6f0ac509
DTITLE=Big Al Carson and The Blues Masters - Live at the Funky Pirate Vol. 2
DYEAR=1999
DGENRE=Blues
TTITLE0=Further On Up The Road
TTITLE1=Champange And Reefer
TTITLE2=Members Only
TTITLE3=What A Wonderful World
TTITLE4=Still Call It The Blues
TTITLE5=Jesus Just Left Chicago
TTITLE6=For The Good Times
TTITLE7=Soul Man
TTITLE8=Mustang Sally
EXTD=YEAR: 1999
EXTT0=
EXTT1=
EXTT2=
EXTT3=
EXTT4=
EXTT5=
EXTT6=
EXTT7=
EXTT8=
PLAYORDER=
